<mxfile host="65bd71144e">
    <diagram id="XFflS_t7QHSqX6oYjaWe" name="Page-1">
        <mxGraphModel dx="900" dy="1870" grid="1" gridSize="10" guides="1" tooltips="1" connect="1" arrows="1" fold="1" page="1" pageScale="1" pageWidth="850" pageHeight="1100" math="0" shadow="0">
            <root>
                <mxCell id="0"/>
                <mxCell id="1" parent="0"/>
                <mxCell id="6" value="n" style="rounded=0;orthogonalLoop=1;jettySize=auto;html=1;exitX=0;exitY=1;exitDx=0;exitDy=0;entryX=1;entryY=0;entryDx=0;entryDy=0;fontSize=28;endArrow=open;endFill=0;endSize=22;" parent="1" source="2" target="3" edge="1">
                    <mxGeometry relative="1" as="geometry"/>
                </mxCell>
                <mxCell id="7" value="*" style="edgeStyle=none;orthogonalLoop=1;jettySize=auto;html=1;exitX=1;exitY=1;exitDx=0;exitDy=0;entryX=0;entryY=0;entryDx=0;entryDy=0;fontSize=54;endArrow=open;endFill=0;endSize=22;labelBackgroundColor=none;" parent="1" source="2" target="4" edge="1">
                    <mxGeometry relative="1" as="geometry"/>
                </mxCell>
                <mxCell id="2" value="E" style="ellipse;whiteSpace=wrap;html=1;aspect=fixed;fontSize=28;fillColor=#fa6800;strokeColor=#C73500;fontColor=#000000;" parent="1" vertex="1">
                    <mxGeometry x="130" y="10" width="80" height="80" as="geometry"/>
                </mxCell>
                <mxCell id="9" value="*" style="edgeStyle=none;orthogonalLoop=1;jettySize=auto;html=1;exitX=1;exitY=1;exitDx=0;exitDy=0;entryX=0;entryY=0;entryDx=0;entryDy=0;fontSize=54;endArrow=open;endFill=0;endSize=22;dashed=1;labelBackgroundColor=none;" parent="1" source="3" target="5" edge="1">
                    <mxGeometry relative="1" as="geometry"/>
                </mxCell>
                <mxCell id="3" value="E1" style="ellipse;whiteSpace=wrap;html=1;aspect=fixed;fontSize=28;fillColor=#60a917;strokeColor=#2D7600;fontColor=#ffffff;" parent="1" vertex="1">
                    <mxGeometry x="10" y="130" width="80" height="80" as="geometry"/>
                </mxCell>
                <mxCell id="8" value="*" style="edgeStyle=none;orthogonalLoop=1;jettySize=auto;html=1;exitX=0;exitY=1;exitDx=0;exitDy=0;entryX=1;entryY=0;entryDx=0;entryDy=0;fontSize=54;endArrow=open;endFill=0;endSize=22;dashed=1;labelBackgroundColor=none;" parent="1" source="4" target="5" edge="1">
                    <mxGeometry relative="1" as="geometry"/>
                </mxCell>
                <mxCell id="4" value="E2" style="ellipse;whiteSpace=wrap;html=1;aspect=fixed;fontSize=28;fillColor=#a20025;strokeColor=#6F0000;fontColor=#ffffff;" parent="1" vertex="1">
                    <mxGeometry x="250" y="130" width="80" height="80" as="geometry"/>
                </mxCell>
                <mxCell id="5" value="E'" style="ellipse;whiteSpace=wrap;html=1;aspect=fixed;fontSize=28;fillColor=#0050ef;strokeColor=#001DBC;fontColor=#ffffff;" parent="1" vertex="1">
                    <mxGeometry x="130" y="250" width="80" height="80" as="geometry"/>
                </mxCell>
            </root>
        </mxGraphModel>
    </diagram>
</mxfile>